<?xml version="1.0" encoding="UTF-8"?><svg xmlns="http://www.w3.org/2000/svg" viewBox="0 0 24 24"><g id="a"/><g id="b"/><g id="c"/><g id="d"><path d="M21,21H3c-.36,0-.68-.19-.86-.5s-.18-.69,0-1L11.13,3.51c.35-.63,1.39-.63,1.74,0l9,16c.17,.31,.17,.69,0,1s-.51,.5-.86,.5Zm-16.29-2h14.58L12,6.04l-7.29,12.96Z"/><path d="M12,18c-.19,0-.38-.05-.55-.17-.46-.31-.58-.93-.28-1.39l.96-1.45h-2.13c-.37,0-.71-.2-.88-.53s-.15-.72,.05-1.03l2-3c.31-.46,.92-.58,1.39-.28,.46,.31,.58,.93,.28,1.39l-.96,1.45h2.13c.37,0,.71,.2,.88,.53s.15,.72-.05,1.03l-2,3c-.19,.29-.51,.45-.83,.45Z"/></g></svg>