<?xml version="1.0" encoding="UTF-8"?><svg xmlns="http://www.w3.org/2000/svg" viewBox="0 0 24 24"><g id="a"/><g id="b"/><g id="c"/><g id="d"><path d="M12,2.95c-3.86,0-7,3.14-7,7,0,2.79,1.64,5.2,4,6.31v3.69c0,.55,.45,1,1,1h4c.55,0,1-.45,1-1v-3.69c2.36-1.11,4-3.52,4-6.31,0-3.86-3.14-7-7-7Zm1,16h-2v-2.08c.33,.06,.66,.08,1,.08s.67-.02,1-.08v2.08Zm-1-4c-2.76,0-5-2.24-5-5s2.24-5,5-5,5,2.24,5,5-2.24,5-5,5Z"/><path d="M14,12.95c-.26,0-.52-.1-.71-.29l-1.29-1.29-1.29,1.29c-.24,.24-.6,.34-.94,.27-.34-.08-.61-.33-.72-.66l-1-3c-.17-.52,.11-1.09,.63-1.26,.53-.18,1.09,.11,1.26,.63l.49,1.46,.86-.86c.39-.39,1.02-.39,1.41,0l.86,.86,.49-1.46c.17-.52,.74-.81,1.26-.63,.52,.17,.81,.74,.63,1.26l-1,3c-.11,.33-.38,.58-.72,.66-.08,.02-.15,.03-.23,.03Z"/></g></svg>